# MagicaVoxel @ Ephtracy

# material
mtllib woodBlock.mtl
usemtl palette

# normals
vn -1 0 0
vn 1 0 0
vn 0 0 1
vn 0 0 -1
vn 0 -1 0
vn 0 1 0

# texcoords
vt 0.0683594 0.5
vt 0.0722656 0.5
vt 0.0800781 0.5

# verts
v -7.5 0 7.5
v -7.5 0 6.5
v -7.5 0 5.5
v -7.5 0 4.5
v -7.5 0 1.5
v -7.5 0 0.5
v -7.5 0 -1.5
v -7.5 0 -3.5
v -7.5 0 -7.5
v -7.5 1 7.5
v -7.5 1 6.5
v -7.5 1 5.5
v -7.5 1 4.5
v -7.5 1 1.5
v -7.5 1 0.5
v -7.5 1 -1.5
v -7.5 1 -3.5
v -7.5 1 -7.5
v -2.5 0 7.5
v -2.5 0 5.5
v -2.5 0 4.5
v -2.5 0 3.5
v -2.5 0 1.5
v -2.5 0 -1.5
v -2.5 0 -2.5
v -2.5 0 -4.5
v -2.5 0 -5.5
v -2.5 0 -7.5
v -2.5 1 7.5
v -2.5 1 5.5
v -2.5 1 4.5
v -2.5 1 3.5
v -2.5 1 1.5
v -2.5 1 -1.5
v -2.5 1 -2.5
v -2.5 1 -4.5
v -2.5 1 -5.5
v -2.5 1 -7.5
v 2.5 0 7.5
v 2.5 0 5.5
v 2.5 0 4.5
v 2.5 0 3.5
v 2.5 0 2.5
v 2.5 0 -0.5
v 2.5 0 -1.5
v 2.5 0 -2.5
v 2.5 0 -4.5
v 2.5 0 -5.5
v 2.5 0 -7.5
v 2.5 1 7.5
v 2.5 1 5.5
v 2.5 1 4.5
v 2.5 1 3.5
v 2.5 1 2.5
v 2.5 1 -0.5
v 2.5 1 -1.5
v 2.5 1 -2.5
v 2.5 1 -4.5
v 2.5 1 -5.5
v 2.5 1 -7.5
v -3.5 0 7.5
v -3.5 0 6.5
v -3.5 0 5.5
v -3.5 0 4.5
v -3.5 0 1.5
v -3.5 0 -1.5
v -3.5 0 -2.5
v -3.5 0 -4.5
v -3.5 0 -5.5
v -3.5 0 -7.5
v -3.5 1 7.5
v -3.5 1 6.5
v -3.5 1 5.5
v -3.5 1 4.5
v -3.5 1 1.5
v -3.5 1 -1.5
v -3.5 1 -2.5
v -3.5 1 -4.5
v -3.5 1 -5.5
v -3.5 1 -7.5
v 1.5 0 7.5
v 1.5 0 5.5
v 1.5 0 4.5
v 1.5 0 2.5
v 1.5 0 1.5
v 1.5 0 0.5
v 1.5 0 -0.5
v 1.5 0 -2.5
v 1.5 0 -3.5
v 1.5 0 -4.5
v 1.5 0 -5.5
v 1.5 0 -7.5
v 1.5 1 7.5
v 1.5 1 5.5
v 1.5 1 4.5
v 1.5 1 2.5
v 1.5 1 1.5
v 1.5 1 0.5
v 1.5 1 -0.5
v 1.5 1 -2.5
v 1.5 1 -3.5
v 1.5 1 -4.5
v 1.5 1 -5.5
v 1.5 1 -7.5
v 6.5 0 7.5
v 6.5 0 3.5
v 6.5 0 2.5
v 6.5 0 -0.5
v 6.5 0 -2.5
v 6.5 0 -4.5
v 6.5 0 -7.5
v 6.5 1 7.5
v 6.5 1 3.5
v 6.5 1 2.5
v 6.5 1 -0.5
v 6.5 1 -2.5
v 6.5 1 -4.5
v 6.5 1 -7.5
v -7.5 0 7.5
v -7.5 1 7.5
v -6.5 0 7.5
v -6.5 1 7.5
v -5.5 0 7.5
v -5.5 1 7.5
v -3.5 0 7.5
v -3.5 1 7.5
v -2.5 0 7.5
v -2.5 1 7.5
v -1.5 0 7.5
v -1.5 1 7.5
v 0.5 0 7.5
v 0.5 1 7.5
v 1.5 0 7.5
v 1.5 1 7.5
v 2.5 0 7.5
v 2.5 1 7.5
v 3.5 0 7.5
v 3.5 1 7.5
v 4.5 0 7.5
v 4.5 1 7.5
v 5.5 0 7.5
v 5.5 1 7.5
v 6.5 0 7.5
v 6.5 1 7.5
v -3.5 0 5.5
v -3.5 1 5.5
v -2.5 0 5.5
v -2.5 1 5.5
v 1.5 0 5.5
v 1.5 1 5.5
v 2.5 0 5.5
v 2.5 1 5.5
v -3.5 0 -4.5
v -3.5 1 -4.5
v -2.5 0 -4.5
v -2.5 1 -4.5
v 1.5 0 -4.5
v 1.5 1 -4.5
v 2.5 0 -4.5
v 2.5 1 -4.5
v -3.5 0 4.5
v -3.5 1 4.5
v -2.5 0 4.5
v -2.5 1 4.5
v 1.5 0 4.5
v 1.5 1 4.5
v 2.5 0 4.5
v 2.5 1 4.5
v -3.5 0 -5.5
v -3.5 1 -5.5
v -2.5 0 -5.5
v -2.5 1 -5.5
v 1.5 0 -5.5
v 1.5 1 -5.5
v 2.5 0 -5.5
v 2.5 1 -5.5
v -7.5 0 -7.5
v -7.5 1 -7.5
v -6.5 0 -7.5
v -6.5 1 -7.5
v -5.5 0 -7.5
v -5.5 1 -7.5
v -4.5 0 -7.5
v -4.5 1 -7.5
v -3.5 0 -7.5
v -3.5 1 -7.5
v -2.5 0 -7.5
v -2.5 1 -7.5
v -1.5 0 -7.5
v -1.5 1 -7.5
v -0.5 0 -7.5
v -0.5 1 -7.5
v 0.5 0 -7.5
v 0.5 1 -7.5
v 1.5 0 -7.5
v 1.5 1 -7.5
v 2.5 0 -7.5
v 2.5 1 -7.5
v 3.5 0 -7.5
v 3.5 1 -7.5
v 4.5 0 -7.5
v 4.5 1 -7.5
v 5.5 0 -7.5
v 5.5 1 -7.5
v 6.5 0 -7.5
v 6.5 1 -7.5
v -7.5 0 7.5
v -6.5 0 7.5
v -5.5 0 7.5
v -3.5 0 7.5
v -2.5 0 7.5
v -1.5 0 7.5
v 0.5 0 7.5
v 1.5 0 7.5
v 2.5 0 7.5
v 3.5 0 7.5
v 4.5 0 7.5
v 5.5 0 7.5
v 6.5 0 7.5
v -7.5 0 6.5
v -6.5 0 6.5
v -4.5 0 6.5
v -3.5 0 6.5
v -0.5 0 6.5
v 0.5 0 6.5
v -7.5 0 5.5
v -6.5 0 5.5
v -5.5 0 5.5
v -4.5 0 5.5
v -3.5 0 5.5
v -2.5 0 5.5
v -0.5 0 5.5
v 0.5 0 5.5
v 1.5 0 5.5
v 2.5 0 5.5
v -7.5 0 4.5
v -6.5 0 4.5
v -5.5 0 4.5
v -4.5 0 4.5
v -3.5 0 4.5
v -2.5 0 4.5
v -1.5 0 4.5
v -0.5 0 4.5
v 1.5 0 4.5
v 2.5 0 4.5
v -5.5 0 3.5
v -4.5 0 3.5
v -2.5 0 3.5
v -1.5 0 3.5
v -0.5 0 3.5
v 0.5 0 3.5
v 2.5 0 3.5
v 3.5 0 3.5
v 4.5 0 3.5
v 5.5 0 3.5
v 6.5 0 3.5
v -5.5 0 2.5
v -4.5 0 2.5
v -0.5 0 2.5
v 0.5 0 2.5
v 1.5 0 2.5
v 2.5 0 2.5
v 3.5 0 2.5
v 4.5 0 2.5
v 5.5 0 2.5
v 6.5 0 2.5
v -7.5 0 1.5
v -6.5 0 1.5
v -5.5 0 1.5
v -4.5 0 1.5
v -3.5 0 1.5
v -2.5 0 1.5
v -1.5 0 1.5
v 0.5 0 1.5
v 1.5 0 1.5
v 4.5 0 1.5
v 5.5 0 1.5
v -7.5 0 0.5
v -6.5 0 0.5
v -5.5 0 0.5
v -4.5 0 0.5
v -0.5 0 0.5
v 0.5 0 0.5
v 1.5 0 0.5
v 4.5 0 0.5
v 5.5 0 0.5
v -5.5 0 -0.5
v -4.5 0 -0.5
v -1.5 0 -0.5
v -0.5 0 -0.5
v 0.5 0 -0.5
v 1.5 0 -0.5
v 2.5 0 -0.5
v 3.5 0 -0.5
v 5.5 0 -0.5
v 6.5 0 -0.5
v -7.5 0 -1.5
v -6.5 0 -1.5
v -5.5 0 -1.5
v -4.5 0 -1.5
v -3.5 0 -1.5
v -2.5 0 -1.5
v -1.5 0 -1.5
v -0.5 0 -1.5
v 2.5 0 -1.5
v 3.5 0 -1.5
v 4.5 0 -1.5
v 5.5 0 -1.5
v -4.5 0 -2.5
v -3.5 0 -2.5
v -2.5 0 -2.5
v -1.5 0 -2.5
v -0.5 0 -2.5
v 0.5 0 -2.5
v 1.5 0 -2.5
v 2.5 0 -2.5
v 3.5 0 -2.5
v 4.5 0 -2.5
v 5.5 0 -2.5
v 6.5 0 -2.5
v -7.5 0 -3.5
v -6.5 0 -3.5
v -5.5 0 -3.5
v -4.5 0 -3.5
v -1.5 0 -3.5
v -0.5 0 -3.5
v 0.5 0 -3.5
v 1.5 0 -3.5
v 3.5 0 -3.5
v 4.5 0 -3.5
v -5.5 0 -4.5
v -4.5 0 -4.5
v -3.5 0 -4.5
v -2.5 0 -4.5
v 0.5 0 -4.5
v 1.5 0 -4.5
v 2.5 0 -4.5
v 4.5 0 -4.5
v 5.5 0 -4.5
v 6.5 0 -4.5
v -6.5 0 -5.5
v -5.5 0 -5.5
v -4.5 0 -5.5
v -3.5 0 -5.5
v -2.5 0 -5.5
v 0.5 0 -5.5
v 1.5 0 -5.5
v 2.5 0 -5.5
v -6.5 0 -6.5
v -5.5 0 -6.5
v -4.5 0 -6.5
v 4.5 0 -6.5
v 5.5 0 -6.5
v -7.5 0 -7.5
v -6.5 0 -7.5
v -5.5 0 -7.5
v -4.5 0 -7.5
v -3.5 0 -7.5
v -2.5 0 -7.5
v -1.5 0 -7.5
v -0.5 0 -7.5
v 0.5 0 -7.5
v 1.5 0 -7.5
v 2.5 0 -7.5
v 3.5 0 -7.5
v 4.5 0 -7.5
v 5.5 0 -7.5
v 6.5 0 -7.5
v -7.5 1 7.5
v -6.5 1 7.5
v -5.5 1 7.5
v -3.5 1 7.5
v -2.5 1 7.5
v -1.5 1 7.5
v 0.5 1 7.5
v 1.5 1 7.5
v 2.5 1 7.5
v 3.5 1 7.5
v 4.5 1 7.5
v 5.5 1 7.5
v 6.5 1 7.5
v -7.5 1 6.5
v -6.5 1 6.5
v -4.5 1 6.5
v -3.5 1 6.5
v -0.5 1 6.5
v 0.5 1 6.5
v -7.5 1 5.5
v -6.5 1 5.5
v -5.5 1 5.5
v -4.5 1 5.5
v -3.5 1 5.5
v -2.5 1 5.5
v -0.5 1 5.5
v 0.5 1 5.5
v 1.5 1 5.5
v 2.5 1 5.5
v -7.5 1 4.5
v -6.5 1 4.5
v -5.5 1 4.5
v -4.5 1 4.5
v -3.5 1 4.5
v -2.5 1 4.5
v -1.5 1 4.5
v -0.5 1 4.5
v 1.5 1 4.5
v 2.5 1 4.5
v -5.5 1 3.5
v -4.5 1 3.5
v -2.5 1 3.5
v -1.5 1 3.5
v -0.5 1 3.5
v 0.5 1 3.5
v 2.5 1 3.5
v 3.5 1 3.5
v 4.5 1 3.5
v 5.5 1 3.5
v 6.5 1 3.5
v -5.5 1 2.5
v -4.5 1 2.5
v -0.5 1 2.5
v 0.5 1 2.5
v 1.5 1 2.5
v 2.5 1 2.5
v 3.5 1 2.5
v 4.5 1 2.5
v 5.5 1 2.5
v 6.5 1 2.5
v -7.5 1 1.5
v -6.5 1 1.5
v -5.5 1 1.5
v -4.5 1 1.5
v -3.5 1 1.5
v -2.5 1 1.5
v -1.5 1 1.5
v 0.5 1 1.5
v 1.5 1 1.5
v 4.5 1 1.5
v 5.5 1 1.5
v -7.5 1 0.5
v -6.5 1 0.5
v -5.5 1 0.5
v -4.5 1 0.5
v -0.5 1 0.5
v 0.5 1 0.5
v 1.5 1 0.5
v 4.5 1 0.5
v 5.5 1 0.5
v -5.5 1 -0.5
v -4.5 1 -0.5
v -1.5 1 -0.5
v -0.5 1 -0.5
v 0.5 1 -0.5
v 1.5 1 -0.5
v 2.5 1 -0.5
v 3.5 1 -0.5
v 5.5 1 -0.5
v 6.5 1 -0.5
v -7.5 1 -1.5
v -6.5 1 -1.5
v -5.5 1 -1.5
v -4.5 1 -1.5
v -3.5 1 -1.5
v -2.5 1 -1.5
v -1.5 1 -1.5
v -0.5 1 -1.5
v 2.5 1 -1.5
v 3.5 1 -1.5
v 4.5 1 -1.5
v 5.5 1 -1.5
v -4.5 1 -2.5
v -3.5 1 -2.5
v -2.5 1 -2.5
v -1.5 1 -2.5
v -0.5 1 -2.5
v 0.5 1 -2.5
v 1.5 1 -2.5
v 2.5 1 -2.5
v 3.5 1 -2.5
v 4.5 1 -2.5
v 5.5 1 -2.5
v 6.5 1 -2.5
v -7.5 1 -3.5
v -6.5 1 -3.5
v -5.5 1 -3.5
v -4.5 1 -3.5
v -1.5 1 -3.5
v -0.5 1 -3.5
v 0.5 1 -3.5
v 1.5 1 -3.5
v 3.5 1 -3.5
v 4.5 1 -3.5
v -5.5 1 -4.5
v -4.5 1 -4.5
v -3.5 1 -4.5
v -2.5 1 -4.5
v 0.5 1 -4.5
v 1.5 1 -4.5
v 2.5 1 -4.5
v 4.5 1 -4.5
v 5.5 1 -4.5
v 6.5 1 -4.5
v -6.5 1 -5.5
v -5.5 1 -5.5
v -4.5 1 -5.5
v -3.5 1 -5.5
v -2.5 1 -5.5
v 0.5 1 -5.5
v 1.5 1 -5.5
v 2.5 1 -5.5
v -6.5 1 -6.5
v -5.5 1 -6.5
v -4.5 1 -6.5
v 4.5 1 -6.5
v 5.5 1 -6.5
v -7.5 1 -7.5
v -6.5 1 -7.5
v -5.5 1 -7.5
v -4.5 1 -7.5
v -3.5 1 -7.5
v -2.5 1 -7.5
v -1.5 1 -7.5
v -0.5 1 -7.5
v 0.5 1 -7.5
v 1.5 1 -7.5
v 2.5 1 -7.5
v 3.5 1 -7.5
v 4.5 1 -7.5
v 5.5 1 -7.5
v 6.5 1 -7.5

# faces
f 10/2/1 2/2/1 1/2/1
f 11/3/1 3/3/1 2/3/1
f 11/2/1 2/2/1 10/2/1
f 12/2/1 4/2/1 3/2/1
f 12/3/1 3/3/1 11/3/1
f 13/3/1 5/3/1 4/3/1
f 13/2/1 4/2/1 12/2/1
f 14/1/1 6/1/1 5/1/1
f 14/3/1 5/3/1 13/3/1
f 15/2/1 7/2/1 6/2/1
f 15/1/1 6/1/1 14/1/1
f 16/3/1 8/3/1 7/3/1
f 16/2/1 7/2/1 15/2/1
f 17/1/1 9/1/1 8/1/1
f 17/3/1 8/3/1 16/3/1
f 18/1/1 9/1/1 17/1/1
f 29/1/1 20/1/1 19/1/1
f 30/1/1 20/1/1 29/1/1
f 31/1/1 22/1/1 21/1/1
f 32/3/1 23/3/1 22/3/1
f 32/1/1 22/1/1 31/1/1
f 33/2/1 24/2/1 23/2/1
f 33/3/1 23/3/1 32/3/1
f 34/3/1 25/3/1 24/3/1
f 34/2/1 24/2/1 33/2/1
f 35/1/1 26/1/1 25/1/1
f 35/3/1 25/3/1 34/3/1
f 36/1/1 26/1/1 35/1/1
f 37/1/1 28/1/1 27/1/1
f 38/1/1 28/1/1 37/1/1
f 50/1/1 40/1/1 39/1/1
f 51/1/1 40/1/1 50/1/1
f 52/1/1 42/1/1 41/1/1
f 53/3/1 43/3/1 42/3/1
f 53/1/1 42/1/1 52/1/1
f 54/2/1 44/2/1 43/2/1
f 54/3/1 43/3/1 53/3/1
f 55/3/1 45/3/1 44/3/1
f 55/2/1 44/2/1 54/2/1
f 56/2/1 46/2/1 45/2/1
f 56/3/1 45/3/1 55/3/1
f 57/1/1 47/1/1 46/1/1
f 57/2/1 46/2/1 56/2/1
f 58/1/1 47/1/1 57/1/1
f 59/1/1 49/1/1 48/1/1
f 60/1/1 49/1/1 59/1/1
f 61/2/2 62/2/2 71/2/2
f 62/3/2 63/3/2 72/3/2
f 71/2/2 62/2/2 72/2/2
f 72/3/2 63/3/2 73/3/2
f 64/1/2 65/1/2 74/1/2
f 65/2/2 66/2/2 75/2/2
f 74/1/2 65/1/2 75/1/2
f 66/3/2 67/3/2 76/3/2
f 75/2/2 66/2/2 76/2/2
f 67/2/2 68/2/2 77/2/2
f 76/3/2 67/3/2 77/3/2
f 77/2/2 68/2/2 78/2/2
f 69/1/2 70/1/2 79/1/2
f 79/1/2 70/1/2 80/1/2
f 81/1/2 82/1/2 93/1/2
f 93/1/2 82/1/2 94/1/2
f 83/1/2 84/1/2 95/1/2
f 84/2/2 85/2/2 96/2/2
f 95/1/2 84/1/2 96/1/2
f 85/3/2 86/3/2 97/3/2
f 96/2/2 85/2/2 97/2/2
f 86/2/2 87/2/2 98/2/2
f 97/3/2 86/3/2 98/3/2
f 87/3/2 88/3/2 99/3/2
f 98/2/2 87/2/2 99/2/2
f 88/2/2 89/2/2 100/2/2
f 99/3/2 88/3/2 100/3/2
f 89/3/2 90/3/2 101/3/2
f 100/2/2 89/2/2 101/2/2
f 101/3/2 90/3/2 102/3/2
f 91/3/2 92/3/2 103/3/2
f 103/3/2 92/3/2 104/3/2
f 105/2/2 106/2/2 112/2/2
f 106/3/2 107/3/2 113/3/2
f 112/2/2 106/2/2 113/2/2
f 107/1/2 108/1/2 114/1/2
f 113/3/2 107/3/2 114/3/2
f 108/2/2 109/2/2 115/2/2
f 114/1/2 108/1/2 115/1/2
f 109/3/2 110/3/2 116/3/2
f 115/2/2 109/2/2 116/2/2
f 110/1/2 111/1/2 117/1/2
f 116/3/2 110/3/2 117/3/2
f 117/1/2 111/1/2 118/1/2
f 121/2/3 120/2/3 119/2/3
f 122/2/3 120/2/3 121/2/3
f 123/1/3 122/1/3 121/1/3
f 124/1/3 122/1/3 123/1/3
f 125/2/3 124/2/3 123/2/3
f 126/2/3 124/2/3 125/2/3
f 129/1/3 128/1/3 127/1/3
f 130/1/3 128/1/3 129/1/3
f 131/3/3 130/3/3 129/3/3
f 132/3/3 130/3/3 131/3/3
f 133/1/3 132/1/3 131/1/3
f 134/1/3 132/1/3 133/1/3
f 137/1/3 136/1/3 135/1/3
f 138/1/3 136/1/3 137/1/3
f 139/3/3 138/3/3 137/3/3
f 140/3/3 138/3/3 139/3/3
f 141/1/3 140/1/3 139/1/3
f 142/1/3 140/1/3 141/1/3
f 143/2/3 142/2/3 141/2/3
f 144/2/3 142/2/3 143/2/3
f 147/2/3 146/2/3 145/2/3
f 148/2/3 146/2/3 147/2/3
f 151/2/3 150/2/3 149/2/3
f 152/2/3 150/2/3 151/2/3
f 155/2/3 154/2/3 153/2/3
f 156/2/3 154/2/3 155/2/3
f 159/3/3 158/3/3 157/3/3
f 160/3/3 158/3/3 159/3/3
f 161/2/4 162/2/4 163/2/4
f 163/2/4 162/2/4 164/2/4
f 165/2/4 166/2/4 167/2/4
f 167/2/4 166/2/4 168/2/4
f 169/2/4 170/2/4 171/2/4
f 171/2/4 170/2/4 172/2/4
f 173/3/4 174/3/4 175/3/4
f 175/3/4 174/3/4 176/3/4
f 177/1/4 178/1/4 179/1/4
f 179/1/4 178/1/4 180/1/4
f 179/2/4 180/2/4 181/2/4
f 181/2/4 180/2/4 182/2/4
f 181/3/4 182/3/4 183/3/4
f 183/3/4 182/3/4 184/3/4
f 183/1/4 184/1/4 185/1/4
f 185/1/4 184/1/4 186/1/4
f 187/1/4 188/1/4 189/1/4
f 189/1/4 188/1/4 190/1/4
f 189/3/4 190/3/4 191/3/4
f 191/3/4 190/3/4 192/3/4
f 191/1/4 192/1/4 193/1/4
f 193/1/4 192/1/4 194/1/4
f 193/3/4 194/3/4 195/3/4
f 195/3/4 194/3/4 196/3/4
f 197/1/4 198/1/4 199/1/4
f 199/1/4 198/1/4 200/1/4
f 199/2/4 200/2/4 201/2/4
f 201/2/4 200/2/4 202/2/4
f 201/3/4 202/3/4 203/3/4
f 203/3/4 202/3/4 204/3/4
f 203/1/4 204/1/4 205/1/4
f 205/1/4 204/1/4 206/1/4
f 220/2/5 208/2/5 207/2/5
f 221/1/5 209/1/5 208/1/5
f 221/2/5 208/2/5 220/2/5
f 222/2/5 210/2/5 209/2/5
f 223/2/5 210/2/5 222/2/5
f 224/3/5 213/3/5 212/3/5
f 225/1/5 214/1/5 213/1/5
f 225/3/5 213/3/5 224/3/5
f 226/3/5 221/3/5 220/3/5
f 227/1/5 209/1/5 221/1/5
f 227/3/5 221/3/5 226/3/5
f 228/2/5 222/2/5 209/2/5
f 228/1/5 209/1/5 227/1/5
f 229/3/5 223/3/5 222/3/5
f 229/2/5 222/2/5 228/2/5
f 230/3/5 223/3/5 229/3/5
f 231/1/5 212/1/5 211/1/5
f 232/3/5 224/3/5 212/3/5
f 232/2/5 225/2/5 224/2/5
f 233/1/5 214/1/5 225/1/5
f 233/2/5 225/2/5 232/2/5
f 234/1/5 214/1/5 233/1/5
f 235/1/5 216/1/5 215/1/5
f 236/2/5 227/2/5 226/2/5
f 237/1/5 228/1/5 227/1/5
f 237/2/5 227/2/5 236/2/5
f 238/3/5 230/3/5 229/3/5
f 238/1/5 228/1/5 237/1/5
f 238/3/5 229/3/5 228/3/5
f 239/3/5 230/3/5 238/3/5
f 240/2/5 231/2/5 230/2/5
f 240/3/5 230/3/5 239/3/5
f 241/1/5 212/1/5 231/1/5
f 241/2/5 231/2/5 240/2/5
f 242/3/5 232/3/5 212/3/5
f 242/1/5 212/1/5 241/1/5
f 242/3/5 233/3/5 232/3/5
f 243/3/5 233/3/5 242/3/5
f 244/1/5 234/1/5 233/1/5
f 244/2/5 235/2/5 234/2/5
f 245/1/5 216/1/5 235/1/5
f 245/2/5 235/2/5 244/2/5
f 246/2/5 239/2/5 238/2/5
f 246/1/5 238/1/5 237/1/5
f 247/1/5 240/1/5 239/1/5
f 247/2/5 239/2/5 246/2/5
f 248/1/5 242/1/5 241/1/5
f 249/2/5 243/2/5 242/2/5
f 249/1/5 242/1/5 248/1/5
f 250/3/5 233/3/5 243/3/5
f 250/2/5 243/2/5 249/2/5
f 251/1/5 244/1/5 233/1/5
f 251/3/5 233/3/5 250/3/5
f 252/1/5 216/1/5 245/1/5
f 253/3/5 217/3/5 216/3/5
f 253/1/5 216/1/5 252/1/5
f 254/1/5 218/1/5 217/1/5
f 254/3/5 217/3/5 253/3/5
f 255/2/5 219/2/5 218/2/5
f 255/1/5 218/1/5 254/1/5
f 256/2/5 219/2/5 255/2/5
f 257/1/5 246/1/5 237/1/5
f 257/3/5 247/3/5 246/3/5
f 258/1/5 240/1/5 247/1/5
f 258/3/5 247/3/5 257/3/5
f 259/1/5 250/1/5 249/1/5
f 259/2/5 251/2/5 250/2/5
f 260/1/5 244/1/5 251/1/5
f 260/2/5 251/2/5 259/2/5
f 261/1/5 244/1/5 260/1/5
f 262/3/5 253/3/5 252/3/5
f 263/1/5 254/1/5 253/1/5
f 263/3/5 253/3/5 262/3/5
f 263/1/5 255/1/5 254/1/5
f 264/1/5 255/1/5 263/1/5
f 265/3/5 256/3/5 255/3/5
f 265/1/5 255/1/5 264/1/5
f 266/3/5 256/3/5 265/3/5
f 267/3/5 237/3/5 236/3/5
f 268/1/5 257/1/5 237/1/5
f 268/3/5 237/3/5 267/3/5
f 269/2/5 258/2/5 257/2/5
f 269/1/5 257/1/5 268/1/5
f 270/1/5 240/1/5 258/1/5
f 270/2/5 258/2/5 269/2/5
f 271/1/5 240/1/5 270/1/5
f 272/3/5 249/3/5 248/3/5
f 273/1/5 259/1/5 249/1/5
f 273/3/5 249/3/5 272/3/5
f 273/1/5 260/1/5 259/1/5
f 274/2/5 261/2/5 260/2/5
f 274/1/5 260/1/5 273/1/5
f 275/2/5 261/2/5 274/2/5
f 276/1/5 264/1/5 263/1/5
f 276/3/5 265/3/5 264/3/5
f 277/1/5 266/1/5 265/1/5
f 277/3/5 265/3/5 276/3/5
f 278/1/5 268/1/5 267/1/5
f 279/2/5 269/2/5 268/2/5
f 279/1/5 268/1/5 278/1/5
f 280/1/5 270/1/5 269/1/5
f 280/2/5 269/2/5 279/2/5
f 281/2/5 271/2/5 270/2/5
f 281/1/5 270/1/5 280/1/5
f 282/1/5 274/1/5 273/1/5
f 283/3/5 275/3/5 274/3/5
f 283/1/5 274/1/5 282/1/5
f 284/3/5 275/3/5 283/3/5
f 285/1/5 276/1/5 263/1/5
f 285/2/5 277/2/5 276/2/5
f 286/1/5 266/1/5 277/1/5
f 286/2/5 277/2/5 285/2/5
f 287/1/5 280/1/5 279/1/5
f 287/2/5 281/2/5 280/2/5
f 288/2/5 271/2/5 281/2/5
f 288/2/5 281/2/5 287/2/5
f 289/2/5 273/2/5 272/2/5
f 289/1/5 282/1/5 273/1/5
f 290/2/5 284/2/5 283/2/5
f 290/1/5 282/1/5 289/1/5
f 290/2/5 283/2/5 282/2/5
f 291/2/5 284/2/5 290/2/5
f 292/2/5 284/2/5 291/2/5
f 293/2/5 263/2/5 262/2/5
f 294/1/5 285/1/5 263/1/5
f 294/2/5 263/2/5 293/2/5
f 295/1/5 266/1/5 286/1/5
f 295/3/5 286/3/5 285/3/5
f 296/1/5 266/1/5 295/1/5
f 297/2/5 279/2/5 278/2/5
f 298/1/5 287/1/5 279/1/5
f 298/2/5 279/2/5 297/2/5
f 299/3/5 288/3/5 287/3/5
f 299/1/5 287/1/5 298/1/5
f 300/2/5 271/2/5 288/2/5
f 300/3/5 288/3/5 299/3/5
f 301/2/5 271/2/5 300/2/5
f 302/2/5 289/2/5 272/2/5
f 302/2/5 290/2/5 289/2/5
f 303/2/5 290/2/5 302/2/5
f 304/1/5 291/1/5 290/1/5
f 304/2/5 290/2/5 303/2/5
f 305/3/5 294/3/5 293/3/5
f 306/1/5 285/1/5 294/1/5
f 306/3/5 294/3/5 305/3/5
f 307/3/5 295/3/5 285/3/5
f 307/1/5 285/1/5 306/1/5
f 308/2/5 296/2/5 295/2/5
f 308/3/5 295/3/5 307/3/5
f 309/3/5 301/3/5 300/3/5
f 309/2/5 300/2/5 299/2/5
f 310/3/5 301/3/5 309/3/5
f 311/3/5 303/3/5 302/3/5
f 312/1/5 304/1/5 303/1/5
f 312/3/5 303/3/5 311/3/5
f 313/1/5 291/1/5 304/1/5
f 313/1/5 304/1/5 312/1/5
f 314/3/5 292/3/5 291/3/5
f 314/1/5 291/1/5 313/1/5
f 315/3/5 292/3/5 314/3/5
f 316/2/5 306/2/5 305/2/5
f 317/1/5 307/1/5 306/1/5
f 317/2/5 306/2/5 316/2/5
f 318/2/5 308/2/5 307/2/5
f 318/1/5 307/1/5 317/1/5
f 319/2/5 296/2/5 308/2/5
f 319/2/5 308/2/5 318/2/5
f 320/2/5 296/2/5 319/2/5
f 321/3/5 298/3/5 297/3/5
f 322/1/5 299/1/5 298/1/5
f 322/3/5 298/3/5 321/3/5
f 323/2/5 310/2/5 309/2/5
f 323/1/5 299/1/5 322/1/5
f 323/2/5 309/2/5 299/2/5
f 324/2/5 310/2/5 323/2/5
f 325/2/5 313/2/5 312/2/5
f 325/1/5 312/1/5 311/1/5
f 326/1/5 314/1/5 313/1/5
f 326/2/5 313/2/5 325/2/5
f 327/2/5 315/2/5 314/2/5
f 327/1/5 314/1/5 326/1/5
f 328/2/5 315/2/5 327/2/5
f 329/3/5 318/3/5 317/3/5
f 329/1/5 317/1/5 316/1/5
f 330/1/5 319/1/5 318/1/5
f 330/3/5 318/3/5 329/3/5
f 331/1/5 324/1/5 323/1/5
f 331/2/5 323/2/5 322/2/5
f 332/2/5 310/2/5 324/2/5
f 332/1/5 324/1/5 331/1/5
f 333/2/5 310/2/5 332/2/5
f 334/1/5 325/1/5 311/1/5
f 335/3/5 328/3/5 327/3/5
f 335/1/5 327/1/5 326/1/5
f 336/3/5 328/3/5 335/3/5
f 337/1/5 329/1/5 316/1/5
f 338/1/5 319/1/5 330/1/5
f 338/2/5 330/2/5 329/2/5
f 339/3/5 320/3/5 319/3/5
f 339/1/5 319/1/5 338/1/5
f 340/3/5 320/3/5 339/3/5
f 341/2/5 331/2/5 322/2/5
f 341/1/5 322/1/5 321/1/5
f 342/3/5 332/3/5 331/3/5
f 342/2/5 331/2/5 341/2/5
f 343/1/5 333/1/5 332/1/5
f 343/3/5 332/3/5 342/3/5
f 344/2/5 334/2/5 333/2/5
f 344/1/5 333/1/5 343/1/5
f 345/1/5 325/1/5 334/1/5
f 345/2/5 334/2/5 344/2/5
f 346/2/5 336/2/5 335/2/5
f 346/1/5 335/1/5 326/1/5
f 347/3/5 337/3/5 336/3/5
f 347/2/5 336/2/5 346/2/5
f 348/1/5 329/1/5 337/1/5
f 348/3/5 337/3/5 347/3/5
f 349/3/5 342/3/5 341/3/5
f 349/1/5 341/1/5 321/1/5
f 350/2/5 343/2/5 342/2/5
f 350/3/5 342/3/5 349/3/5
f 351/1/5 344/1/5 343/1/5
f 351/2/5 343/2/5 350/2/5
f 352/2/5 338/2/5 329/2/5
f 352/2/5 339/2/5 338/2/5
f 353/1/5 340/1/5 339/1/5
f 353/2/5 339/2/5 352/2/5
f 354/1/5 349/1/5 321/1/5
f 355/2/5 350/2/5 349/2/5
f 355/1/5 349/1/5 354/1/5
f 356/3/5 351/3/5 350/3/5
f 356/2/5 350/2/5 355/2/5
f 357/1/5 344/1/5 351/1/5
f 357/3/5 351/3/5 356/3/5
f 358/1/5 344/1/5 357/1/5
f 359/1/5 325/1/5 345/1/5
f 360/3/5 326/3/5 325/3/5
f 360/1/5 325/1/5 359/1/5
f 361/1/5 346/1/5 326/1/5
f 361/3/5 326/3/5 360/3/5
f 362/3/5 347/3/5 346/3/5
f 362/1/5 346/1/5 361/1/5
f 363/3/5 347/3/5 362/3/5
f 364/1/5 329/1/5 348/1/5
f 365/2/5 352/2/5 329/2/5
f 365/1/5 329/1/5 364/1/5
f 366/3/5 353/3/5 352/3/5
f 366/2/5 352/2/5 365/2/5
f 367/1/5 340/1/5 353/1/5
f 367/3/5 353/3/5 366/3/5
f 368/1/5 340/1/5 367/1/5
f 369/2/6 370/2/6 382/2/6
f 370/1/6 371/1/6 383/1/6
f 382/2/6 370/2/6 383/2/6
f 371/2/6 372/2/6 384/2/6
f 384/2/6 372/2/6 385/2/6
f 374/3/6 375/3/6 386/3/6
f 375/1/6 376/1/6 387/1/6
f 386/3/6 375/3/6 387/3/6
f 382/3/6 383/3/6 388/3/6
f 383/1/6 371/1/6 389/1/6
f 388/3/6 383/3/6 389/3/6
f 371/2/6 384/2/6 390/2/6
f 389/1/6 371/1/6 390/1/6
f 384/3/6 385/3/6 391/3/6
f 390/2/6 384/2/6 391/2/6
f 391/3/6 385/3/6 392/3/6
f 373/1/6 374/1/6 393/1/6
f 374/3/6 386/3/6 394/3/6
f 386/2/6 387/2/6 394/2/6
f 387/1/6 376/1/6 395/1/6
f 394/2/6 387/2/6 395/2/6
f 395/1/6 376/1/6 396/1/6
f 377/1/6 378/1/6 397/1/6
f 388/2/6 389/2/6 398/2/6
f 389/1/6 390/1/6 399/1/6
f 398/2/6 389/2/6 399/2/6
f 391/3/6 392/3/6 400/3/6
f 399/1/6 390/1/6 400/1/6
f 390/3/6 391/3/6 400/3/6
f 400/3/6 392/3/6 401/3/6
f 392/2/6 393/2/6 402/2/6
f 401/3/6 392/3/6 402/3/6
f 393/1/6 374/1/6 403/1/6
f 402/2/6 393/2/6 403/2/6
f 374/3/6 394/3/6 404/3/6
f 403/1/6 374/1/6 404/1/6
f 394/3/6 395/3/6 404/3/6
f 404/3/6 395/3/6 405/3/6
f 395/1/6 396/1/6 406/1/6
f 396/2/6 397/2/6 406/2/6
f 397/1/6 378/1/6 407/1/6
f 406/2/6 397/2/6 407/2/6
f 400/2/6 401/2/6 408/2/6
f 399/1/6 400/1/6 408/1/6
f 401/1/6 402/1/6 409/1/6
f 408/2/6 401/2/6 409/2/6
f 403/1/6 404/1/6 410/1/6
f 404/2/6 405/2/6 411/2/6
f 410/1/6 404/1/6 411/1/6
f 405/3/6 395/3/6 412/3/6
f 411/2/6 405/2/6 412/2/6
f 395/1/6 406/1/6 413/1/6
f 412/3/6 395/3/6 413/3/6
f 407/1/6 378/1/6 414/1/6
f 378/3/6 379/3/6 415/3/6
f 414/1/6 378/1/6 415/1/6
f 379/1/6 380/1/6 416/1/6
f 415/3/6 379/3/6 416/3/6
f 380/2/6 381/2/6 417/2/6
f 416/1/6 380/1/6 417/1/6
f 417/2/6 381/2/6 418/2/6
f 399/1/6 408/1/6 419/1/6
f 408/3/6 409/3/6 419/3/6
f 409/1/6 402/1/6 420/1/6
f 419/3/6 409/3/6 420/3/6
f 411/1/6 412/1/6 421/1/6
f 412/2/6 413/2/6 421/2/6
f 413/1/6 406/1/6 422/1/6
f 421/2/6 413/2/6 422/2/6
f 422/1/6 406/1/6 423/1/6
f 414/3/6 415/3/6 424/3/6
f 415/1/6 416/1/6 425/1/6
f 424/3/6 415/3/6 425/3/6
f 416/1/6 417/1/6 425/1/6
f 425/1/6 417/1/6 426/1/6
f 417/3/6 418/3/6 427/3/6
f 426/1/6 417/1/6 427/1/6
f 427/3/6 418/3/6 428/3/6
f 398/3/6 399/3/6 429/3/6
f 399/1/6 419/1/6 430/1/6
f 429/3/6 399/3/6 430/3/6
f 419/2/6 420/2/6 431/2/6
f 430/1/6 419/1/6 431/1/6
f 420/1/6 402/1/6 432/1/6
f 431/2/6 420/2/6 432/2/6
f 432/1/6 402/1/6 433/1/6
f 410/3/6 411/3/6 434/3/6
f 411/1/6 421/1/6 435/1/6
f 434/3/6 411/3/6 435/3/6
f 421/1/6 422/1/6 435/1/6
f 422/2/6 423/2/6 436/2/6
f 435/1/6 422/1/6 436/1/6
f 436/2/6 423/2/6 437/2/6
f 425/1/6 426/1/6 438/1/6
f 426/3/6 427/3/6 438/3/6
f 427/1/6 428/1/6 439/1/6
f 438/3/6 427/3/6 439/3/6
f 429/1/6 430/1/6 440/1/6
f 430/2/6 431/2/6 441/2/6
f 440/1/6 430/1/6 441/1/6
f 431/1/6 432/1/6 442/1/6
f 441/2/6 431/2/6 442/2/6
f 432/2/6 433/2/6 443/2/6
f 442/1/6 432/1/6 443/1/6
f 435/1/6 436/1/6 444/1/6
f 436/3/6 437/3/6 445/3/6
f 444/1/6 436/1/6 445/1/6
f 445/3/6 437/3/6 446/3/6
f 425/1/6 438/1/6 447/1/6
f 438/2/6 439/2/6 447/2/6
f 439/1/6 428/1/6 448/1/6
f 447/2/6 439/2/6 448/2/6
f 441/1/6 442/1/6 449/1/6
f 442/2/6 443/2/6 449/2/6
f 443/2/6 433/2/6 450/2/6
f 449/2/6 443/2/6 450/2/6
f 434/2/6 435/2/6 451/2/6
f 435/1/6 444/1/6 451/1/6
f 445/2/6 446/2/6 452/2/6
f 451/1/6 444/1/6 452/1/6
f 444/2/6 445/2/6 452/2/6
f 452/2/6 446/2/6 453/2/6
f 453/2/6 446/2/6 454/2/6
f 424/2/6 425/2/6 455/2/6
f 425/1/6 447/1/6 456/1/6
f 455/2/6 425/2/6 456/2/6
f 448/1/6 428/1/6 457/1/6
f 447/3/6 448/3/6 457/3/6
f 457/1/6 428/1/6 458/1/6
f 440/2/6 441/2/6 459/2/6
f 441/1/6 449/1/6 460/1/6
f 459/2/6 441/2/6 460/2/6
f 449/3/6 450/3/6 461/3/6
f 460/1/6 449/1/6 461/1/6
f 450/2/6 433/2/6 462/2/6
f 461/3/6 450/3/6 462/3/6
f 462/2/6 433/2/6 463/2/6
f 434/2/6 451/2/6 464/2/6
f 451/2/6 452/2/6 464/2/6
f 464/2/6 452/2/6 465/2/6
f 452/1/6 453/1/6 466/1/6
f 465/2/6 452/2/6 466/2/6
f 455/3/6 456/3/6 467/3/6
f 456/1/6 447/1/6 468/1/6
f 467/3/6 456/3/6 468/3/6
f 447/3/6 457/3/6 469/3/6
f 468/1/6 447/1/6 469/1/6
f 457/2/6 458/2/6 470/2/6
f 469/3/6 457/3/6 470/3/6
f 462/3/6 463/3/6 471/3/6
f 461/2/6 462/2/6 471/2/6
f 471/3/6 463/3/6 472/3/6
f 464/3/6 465/3/6 473/3/6
f 465/1/6 466/1/6 474/1/6
f 473/3/6 465/3/6 474/3/6
f 466/1/6 453/1/6 475/1/6
f 474/1/6 466/1/6 475/1/6
f 453/3/6 454/3/6 476/3/6
f 475/1/6 453/1/6 476/1/6
f 476/3/6 454/3/6 477/3/6
f 467/2/6 468/2/6 478/2/6
f 468/1/6 469/1/6 479/1/6
f 478/2/6 468/2/6 479/2/6
f 469/2/6 470/2/6 480/2/6
f 479/1/6 469/1/6 480/1/6
f 470/2/6 458/2/6 481/2/6
f 480/2/6 470/2/6 481/2/6
f 481/2/6 458/2/6 482/2/6
f 459/3/6 460/3/6 483/3/6
f 460/1/6 461/1/6 484/1/6
f 483/3/6 460/3/6 484/3/6
f 471/2/6 472/2/6 485/2/6
f 484/1/6 461/1/6 485/1/6
f 461/2/6 471/2/6 485/2/6
f 485/2/6 472/2/6 486/2/6
f 474/2/6 475/2/6 487/2/6
f 473/1/6 474/1/6 487/1/6
f 475/1/6 476/1/6 488/1/6
f 487/2/6 475/2/6 488/2/6
f 476/2/6 477/2/6 489/2/6
f 488/1/6 476/1/6 489/1/6
f 489/2/6 477/2/6 490/2/6
f 479/3/6 480/3/6 491/3/6
f 478/1/6 479/1/6 491/1/6
f 480/1/6 481/1/6 492/1/6
f 491/3/6 480/3/6 492/3/6
f 485/1/6 486/1/6 493/1/6
f 484/2/6 485/2/6 493/2/6
f 486/2/6 472/2/6 494/2/6
f 493/1/6 486/1/6 494/1/6
f 494/2/6 472/2/6 495/2/6
f 473/1/6 487/1/6 496/1/6
f 489/3/6 490/3/6 497/3/6
f 488/1/6 489/1/6 497/1/6
f 497/3/6 490/3/6 498/3/6
f 478/1/6 491/1/6 499/1/6
f 492/1/6 481/1/6 500/1/6
f 491/2/6 492/2/6 500/2/6
f 481/3/6 482/3/6 501/3/6
f 500/1/6 481/1/6 501/1/6
f 501/3/6 482/3/6 502/3/6
f 484/2/6 493/2/6 503/2/6
f 483/1/6 484/1/6 503/1/6
f 493/3/6 494/3/6 504/3/6
f 503/2/6 493/2/6 504/2/6
f 494/1/6 495/1/6 505/1/6
f 504/3/6 494/3/6 505/3/6
f 495/2/6 496/2/6 506/2/6
f 505/1/6 495/1/6 506/1/6
f 496/1/6 487/1/6 507/1/6
f 506/2/6 496/2/6 507/2/6
f 497/2/6 498/2/6 508/2/6
f 488/1/6 497/1/6 508/1/6
f 498/3/6 499/3/6 509/3/6
f 508/2/6 498/2/6 509/2/6
f 499/1/6 491/1/6 510/1/6
f 509/3/6 499/3/6 510/3/6
f 503/3/6 504/3/6 511/3/6
f 483/1/6 503/1/6 511/1/6
f 504/2/6 505/2/6 512/2/6
f 511/3/6 504/3/6 512/3/6
f 505/1/6 506/1/6 513/1/6
f 512/2/6 505/2/6 513/2/6
f 491/2/6 500/2/6 514/2/6
f 500/2/6 501/2/6 514/2/6
f 501/1/6 502/1/6 515/1/6
f 514/2/6 501/2/6 515/2/6
f 483/1/6 511/1/6 516/1/6
f 511/2/6 512/2/6 517/2/6
f 516/1/6 511/1/6 517/1/6
f 512/3/6 513/3/6 518/3/6
f 517/2/6 512/2/6 518/2/6
f 513/1/6 506/1/6 519/1/6
f 518/3/6 513/3/6 519/3/6
f 519/1/6 506/1/6 520/1/6
f 507/1/6 487/1/6 521/1/6
f 487/3/6 488/3/6 522/3/6
f 521/1/6 487/1/6 522/1/6
f 488/1/6 508/1/6 523/1/6
f 522/3/6 488/3/6 523/3/6
f 508/3/6 509/3/6 524/3/6
f 523/1/6 508/1/6 524/1/6
f 524/3/6 509/3/6 525/3/6
f 510/1/6 491/1/6 526/1/6
f 491/2/6 514/2/6 527/2/6
f 526/1/6 491/1/6 527/1/6
f 514/3/6 515/3/6 528/3/6
f 527/2/6 514/2/6 528/2/6
f 515/1/6 502/1/6 529/1/6
f 528/3/6 515/3/6 529/3/6
f 529/1/6 502/1/6 530/1/6
